Coordinates
version=1
nRows=14
nColumns=24
inDegrees=yes

Units are S.I. units (second, meters, Newtons, ...)
Angles are in degrees.

endheader
time	pelvis_tilt	pelvis_list	pelvis_rotation	pelvis_tx	pelvis_ty	pelvis_tz	hip_flexion_r	hip_adduction_r	hip_rotation_r	knee_angle_r	ankle_angle_r	subtalar_angle_r	mtp_angle_r	hip_flexion_l	hip_adduction_l	hip_rotation_l	knee_angle_l	ankle_angle_l	subtalar_angle_l	mtp_angle_l	lumbar_extension	lumbar_bending	lumbar_rotation
      3.99000000	     -3.52072961	     -5.74578077	     -4.07895471	      0.41826672	      0.69984677	     -0.22058689	     10.12637737	     14.00662942	     14.32494262	    -12.28795668	     13.20688253	    -11.05142161	      0.00000000	     28.18744167	     -2.88782633	      1.20311197	    -70.94919084	     -1.11659340	    -17.04439103	      0.00000000	    -17.91354809	      7.29426079	      1.23673045
      4.00000000	     -3.36051999	     -5.21699528	     -4.74311873	      0.43224374	      0.70189436	     -0.21956307	      7.51030982	     13.30143225	     16.69549651	    -10.28775274	     12.64837186	    -12.72916371	      0.00000000	     29.60235701	     -2.45338121	      0.90613764	    -69.18784017	     -0.48689270	    -17.54842083	      0.00000000	    -18.25206301	      6.38640836	      1.90291791
      4.01000000	     -3.32280257	     -4.72320062	     -5.51327539	      0.44612881	      0.70327874	     -0.21860932	      5.14321366	     12.53605346	     18.81751774	     -8.40933773	     12.24494856	    -14.03424257	      0.00000000	     30.97002018	     -2.15493946	      0.50264594	    -67.03438670	      0.06888451	    -17.88312103	      0.00000000	    -18.47135073	      5.56965777	      2.61250082
      4.02000000	     -3.30145904	     -4.29242628	     -6.25565530	      0.45998541	      0.70413202	     -0.21778817	      2.90176353	     11.75269129	     20.66509700	     -6.63808442	     11.89158763	    -15.26702326	      0.00000000	     32.15947964	     -1.94080996	      0.15304597	    -64.46780934	      0.65154733	    -17.92926518	      0.00000000	    -18.69061942	      4.86519100	      3.27976841
      4.03000000	     -3.33332490	     -3.96303446	     -7.01389462	      0.47382718	      0.70440414	     -0.21704971	      0.83737289	     11.01975990	     22.21617673	     -5.03373253	     11.73916459	    -16.16425202	      0.00000000	     33.19691055	     -1.87717829	     -0.17744209	    -61.49938153	      1.30426357	    -17.74847245	      0.00000000	    -18.86253298	      4.32363932	      3.92080557
      4.04000000	     -3.54837670	     -3.76988664	     -7.85230102	      0.48758759	      0.70399612	     -0.21628884	     -0.83542497	     10.44993387	     23.27935005	     -3.77707237	     12.01767055	    -16.27054775	      0.00000000	     34.21418715	     -2.04107594	     -0.48443607	    -58.14606654	      2.05395403	    -17.28777577	      0.00000000	    -18.85586519	      3.97571186	      4.66978878
      4.05000000	     -3.62593097	     -3.66272131	     -8.60417535	      0.50144633	      0.70333187	     -0.21564267	     -2.61905499	      9.91033966	     24.37669237	     -2.59380049	     12.23882772	    -16.59769616	      0.00000000	     34.81733480	     -2.25290126	     -0.68889144	    -54.31889986	      2.85105277	    -16.65775519	      0.00000000	    -19.01034807	      3.75187420	      5.27123627
      4.06000000	     -3.72303493	     -3.64515655	     -9.29228860	      0.51533898	      0.70227107	     -0.21507433	     -4.29647366	      9.45797016	     25.37472590	     -1.58477177	     12.49054821	    -16.90980177	      0.00000000	     35.17483676	     -2.52415342	     -0.75994567	    -50.02241117	      3.64180793	    -15.94488953	      0.00000000	    -19.15750437	      3.65744477	      5.78545139
      4.07000000	     -3.76028366	     -3.68146133	     -9.89418616	      0.52932085	      0.70093612	     -0.21458055	     -5.96679309	      9.05407313	     26.32073751	     -0.73426879	     12.77153156	    -17.33836510	      0.00000000	     35.15632466	     -2.78541168	     -0.68222558	    -45.19136444	      4.40261396	    -15.28650740	      0.00000000	    -19.37205537	      3.63213876	      6.16748924
      4.08000000	     -4.08394066	     -3.80824022	    -10.58392821	      0.54334319	      0.69902230	     -0.21394220	     -7.20276262	      8.83302588	     27.05592070	     -0.19833935	     13.27266918	    -17.23685631	      0.00000000	     35.13283928	     -3.24796055	     -0.58157680	    -39.89633767	      5.11800551	    -14.56828919	      0.00000000	    -19.22915068	      3.76511118	      6.61614278
      4.09000000	     -4.05150975	     -4.02153059	    -11.29712093	      0.55740345	      0.69734389	     -0.21324503	     -8.74833572	      8.64436757	     27.83580678	      0.13507185	     13.79932264	    -17.18953370	      0.00000000	     34.29708532	     -3.71578719	     -0.25508935	    -33.97776538	      5.63745744	    -14.19661471	      0.00000000	    -19.57073144	      3.87734799	      7.21507601
      4.10000000	     -4.14637286	     -4.28766404	    -11.99420478	      0.57175453	      0.69530633	     -0.21252670	    -10.13371572	      8.52724362	     28.54358989	      0.33476749	     14.33565142	    -16.95158253	      0.00000000	     33.21602101	     -4.23651723	      0.38493973	    -27.56132238	      5.76325161	    -14.22870679	      0.00000000	    -19.69471372	      4.09356939	      7.68998396
      4.11000000	     -4.02423711	     -4.68184193	    -12.69188381	      0.58648625	      0.69324614	     -0.21163403	    -11.74508927	      8.51069420	     29.12600704	      0.37018125	     14.98953335	    -16.57462496	      0.00000000	     31.48627539	     -4.86503684	      1.49978035	    -20.70323542	      5.44022484	    -15.06421332	      0.00000000	    -20.02104557	      4.34929747	      8.21213635
      4.12000000	     -3.80220498	     -5.36907118	    -13.42474821	      0.60149117	      0.69105189	     -0.21056032	    -13.48724565	      8.75861210	     29.69267634	      0.21177670	     15.64836249	    -15.85219475	      0.00000000	     29.34855580	     -5.87352408	      3.11017420	    -13.72473611	      4.46777143	    -16.82570233	      0.00000000	    -20.49568040	      4.89222197	      8.77636127
